<svg id="svg" viewBox="0 0 640 640" xmlns="http://www.w3.org/2000/svg" xmlns:xlink="http://www.w3.org/1999/xlink" version="1.1" width="475.2000045776367" height="475.2000045776367" preserveAspectRatio="xMidYMid meet" buffered-rendering="static" style="background: rgb(255, 255, 255);"><g><path d="M 343.75 11.100451098745474 C 340.3125 11.155699203055486 335.8125 11.605699203055485 333.75 12.100451098745474 C 331.6875 12.595202994435464 327.6375 14.181220774463673 324.75 15.62493505436372 C 321.6313708008891 17.184211074612957 316.2504388263451 21.548446524052512 311.4956695688184 26.374935054363718 C 306.6036741326267 31.340719634916894 302.2293209003767 36.93019624013887 300.2456695688184 40.75 C 298.11302490008114 44.85671169599695 296.39987927487914 46.98795326573054 295.25 46.964870760016964 C 294.2875 46.9455496780263 290.575 46.28635783601867 287 45.5 C 282.9436532163243 44.607765012880435 274.5788402835218 44.057051759924285 264.75 44.035129239983036 C 255.40060481806125 44.01427608778985 245.03772082691447 44.61873152518329 239.25 45.522515730722574 C 233.8875 46.359899382619986 226.35 47.71981728708798 222.5 48.54455551842921 C 218.65 49.36929374977045 214.6 50.45633365049808 213.5 50.96019974226838 C 212.4 51.46406583403868 209.025 52.554029320595376 206 53.38234082350547 C 202.975 54.21065232641558 195.775 57.289088495932 190 60.223310089097524 C 184.225 63.15753168226305 175.9 68.30464138204489 171.5 71.66133164416829 C 167.1 75.01802190629168 162.4875 78.94241375722248 161.25 80.38220242401451 L 159 83 L 154.25 78.35724023916909 C 151.6375 75.80372237071208 147.025 72.12237986775673 144 70.17647912149054 C 140.975 68.23057837522435 136.475 66.03892069336702 134 65.30612871736315 C 131.525 64.57333674135928 126.35 63.973007418916595 122.5 63.9720635563794 C 118.52980349305071 63.971090226574674 113.11944011260302 64.73757976747562 110 65.74294632109104 C 106.975 66.71787570421964 101.87200008376554 69.08704752961766 98.66000018614564 71.00777259975334 C 95.44800028852573 72.928497669889 90.61050028852574 76.6375 87.91000018614564 79.25 C 85.17631384260615 81.89460481456842 81.81426670799765 86.5486362771014 80.32485702637501 89.75 C 78.85352839088127 92.9125 76.83624033858312 98.65 75.84199468793469 102.5 C 74.84774903728625 106.35 74.03198536093042 112.425 74.02918651825507 116 C 74.02638767557973 119.575 74.52153926664384 124.075 75.12952338728644 126 C 75.73750750792904 127.925 77.29183074781487 132.425 78.58357503147718 136 C 80.26726304684405 140.65973392030133 82.56972624125004 144.29695910473419 86.71610050088614 148.84703552362643 C 90.43019017487576 152.92273896597666 94.46821435779225 156.14345336963672 98 157.84703552362643 C 102.80483995398555 160.1646845622781 104.74235189768405 160.5 113.32929826942373 160.5 L 123.15859653884746 160.5 L 122.54984442573121 164 C 122.21503076351726 165.925 121.68331376300596 179.2 121.36825109126163 193.5 C 121.01164991153163 209.6853412906909 121.18209684008767 221.38743436717482 121.8197818345827 224.5 C 122.38318641515362 227.25 123.59757532523733 232.2 124.51842385699095 235.5 C 125.43927238874457 238.8 127.79593852321347 245.55 129.75545971136629 250.5 C 131.7149808995191 255.45 135.046624768706 262.3125 137.1591127540039 265.75 C 139.27160073930176 269.1875 141.7875 272.97576646012953 142.75 274.168369911399 C 143.7125 275.36097336266846 146.15677020470645 278.17347336266846 148.18171156601434 280.418369911399 C 150.20665292732224 282.66326646012953 154.5817424338828 286.3 157.90413269170446 288.5 C 161.22652294952613 290.7 163.9572527448197 292.8375 163.97242112569012 293.25 C 163.98758950656054 293.6625 161.8625 293.7191338767001 159.25 293.3758530593335 C 156.6375 293.0325722419669 151.8 291.63942325162725 148.5 290.2799664141342 C 145.2 288.92050957664117 139.575 287.5582051981709 136 287.2526233508669 C 130.45573743182695 286.77871398093106 128.78848905311003 287.05012674427354 124.66099192019274 289.0985099960662 C 121.99953747629876 290.4193294982298 118.44285307707896 292.85 116.75724881081543 294.5 C 115.07164454455189 296.15 112.86338030766194 298.85 111.84999495105998 300.5 C 110.67685556854039 302.41011244493205 110.00611809902436 305.40730322136886 110.0037380604373 308.75 C 110.00168212719679 311.6375 110.86840258965759 316.3625 111.92978353257243 319.25 C 113.27901955129549 322.92061329871217 115.4682856585619 326.0041778107503 119.20706847727693 329.5 C 122.14819425394958 332.25 126.79229166429198 335.5686654147787 129.5272849447045 336.87481203284153 C 132.26227822511703 338.1809586509044 135.85 339.4385977365469 137.5 339.66956555649153 C 139.15 339.9005333764362 141.625 340.54361747608596 143 341.09864133349106 C 144.375 341.65366519089616 151.56724110518763 342.42102610525365 158.98275801152806 342.80388780984106 L 172.46551602305615 343.5 L 171.98275801152806 348 C 171.71724110518764 350.475 171.60657472108554 358.575 171.73683271352337 366 C 171.92114202110486 376.5060471390673 172.43966625398897 380.9415328589676 174.07490464353862 386 C 175.7860705480242 391.2933422771949 175.97108050385052 393.05691894898695 175.0715126212138 395.5 C 174.46396543986464 397.15 173.9743330713578 401.0875 173.98344069119855 404.25 C 173.99254831103934 407.4125 174.61743065545448 411.4625 175.37206812323217 413.25 C 176.12670559100988 415.0375 178.37670559100988 417.9625 180.37206812323217 419.75 C 182.45658561498038 421.6173674364077 184.014713508556 423.9572071594101 184.03458540183868 425.25 C 184.05360737284997 426.4875 183.26610737284994 428.625 182.28458540183868 430 C 181.30306343082742 431.375 179.7125 433.9625 178.75 435.75 C 177.6950437374922 437.7092044875145 177.01591569588004 441.0851312124766 177.0400729713652 444.25 C 177.07572734275413 448.92111480419055 177.4616508066271 449.85835750216773 180.5400729713652 452.75 C 182.7101066644748 454.7883694350308 186.14365407648393 456.5861415355807 189.75 457.57222840502175 L 195.5 459.14445681004355 L 203 457.4483425690488 C 207.6990792343127 456.38565254119806 212.17292187546073 454.58476191766306 214.97956765491608 452.62611416402706 C 217.44332986511992 450.90675137381214 220.51258986842467 448.375 221.8001454400377 447 C 223.08770101165075 445.625 225.4105253420881 442.025 226.961977285454 439 C 228.51342922881992 435.975 230.2816692255152 431.5875 230.8913995003324 429.25 L 232 425 L 235.75 425.7468328675393 C 237.8125 426.15759094468586 246.925 426.4574223969084 256 426.41312498358934 C 268.1903574599623 426.35362070778655 274.1977379703179 425.8841265123887 279 424.6156083329401 C 282.575 423.671271588402 287.75 422.1730522698192 290.5 421.2862320694227 C 293.25 420.39941186902615 299.325 417.7137767662648 304 415.31815406328633 C 308.675 412.92253136030786 312.6125 410.9709192266682 312.75 410.98123821075365 C 312.8875 410.9915571948391 312.98738156498973 414.0375 312.9719590333105 417.75 C 312.94943311534837 423.1724216992252 313.40084049679757 425.1883739337351 315.26711542672524 428 C 316.5448739747826 429.925 319.59499240979284 432.82084248687073 322.04515639341474 434.4352055263794 C 325.51362350385364 436.72050771197706 327.93920814986046 437.4638290269392 333 437.79232141522596 C 337.9161276507178 438.11142375354126 340.96203601472206 437.6934119676928 345.5 436.0768570286886 C 348.8 434.9013009167361 352.5576050406817 432.94059876675516 353.8502334237372 431.71974113984203 C 355.14286180679267 430.4988835129289 357.45775148566594 427.025 358.9944327101223 424 C 360.53111393457857 420.975 362.56930273920824 415.8 363.52374116485475 412.5 C 364.7311963642191 408.3251867791231 365.1033871439191 404.52271432261665 364.7472568640387 400 C 364.4657520729433 396.425 363.2893804894442 391.025 362.1330977895964 388 C 360.97681508974847 384.975 358.5613433462424 380.25 356.76538280402735 377.5 C 354.65873119515584 374.274265476205 351.30435635355866 371.080587619036 347.3125278435287 368.5 L 341.1250556870574 364.5 L 341.0625278435287 356.75 C 341.0281375295879 352.4875 340.37580556776425 345.7375 339.6129012616983 341.75 C 338.8499969556323 337.7625 337.056536208533 331.575 335.6274329348108 328 C 334.19832966108874 324.425 333.0193166798708 321.05 333.00740408766 320.5 C 332.99333669581205 319.8505136934545 336.3181232332148 319.76288527009086 342.49287241454743 320.25 C 348.0046604294957 320.6848149295416 354.73160394397314 320.57975323938876 358.5 320 C 362.075 319.45 368.4875 317.5604382939364 372.75 315.80097398652526 C 378.9164503368314 313.2556017235158 381.83816966061795 311.26339408275527 387.049093540292 306.05097398652526 C 391.76289158166134 301.33582246872186 394.07808590959564 298.09881715871717 395.3106646205325 294.5 C 396.2525272675042 291.75 397.03055360938345 286.8 397.03961204693087 283.5 C 397.0523069314319 278.8752378780606 396.52381209699894 276.69777790446466 394.7338516710829 274 C 393.45662502681915 272.075 391.3065065918085 269.9161227125707 389.95581070439255 269.20249491682387 C 388.31966148091493 268.33805046656556 384.82988709773485 268.0369131371137 379.5 268.30024893555037 C 373.27694058168544 268.60771404514657 369.4454124524262 269.50673604975583 362.25 272.3477540187265 C 354.20924477259666 275.522544933936 352.06401129195916 275.9673177088487 345.84024562637876 275.75 L 338.6804912527575 275.5 L 345.59024562637876 270.3766486810264 C 349.39061053187044 267.55880545559086 356.55 260.8692478223866 361.5 255.51096505168363 C 366.45 250.15268228098063 373.13611289822137 242.33319037451878 376.35802866271416 238.13431637065727 C 379.57994442720695 233.93544236679577 384.118254609197 226.675 386.44316240046976 222 C 388.76807019174254 217.325 391.92214568765587 209 393.4522190580549 203.5 L 396.23417064059856 193.5 L 395.79172472846676 179.5 C 395.5483794767943 171.8 394.87136704301804 164.375 394.28725265340836 163 C 393.70313826379873 161.625 392.67474369704195 158.025 392.0019313939488 155 C 391.32911909085567 151.975 388.9987129578263 145 386.8232510983279 139.5 C 384.64778923882943 134 380.46924556221484 125.225 377.5375984836287 120 C 374.60595140504256 114.775 370.3606815777136 108.1375 368.10366553400877 105.25 C 365.84664949030395 102.3625 363.98278461132617 99.8875 363.9617435807248 99.75 C 363.9407025501234 99.6125 366.4157025501234 97.8125 369.4617435807248 95.75 C 372.50778461132614 93.6875 377.0491135763637 90.0875 379.55358572525273 87.75 C 382.75086297911633 84.76588393218049 385.0576151891103 81.26608717850503 387.29813215897485 76 L 390.48909286744424 68.5 L 390.4945464337221 56.5 L 390.5 44.5 L 387.54957778499295 38.5 C 385.73913865068084 34.81827785507423 381.8753422255571 29.76148354384094 377.54957778499295 25.412368678762935 C 373.6723100032468 21.51417145208255 368.25 17.194304240787876 365.5 15.812663764774772 C 362.75 14.431023288761667 358.1375 12.782957383318347 355.25 12.150295086011837 C 352.3625 11.517632788705326 347.1875 11.045202994435463 343.75 11.100451098745474 Z " class="odd" fill="#000000"></path><path d="M 263.5 51.24172457993633 C 270.65 51.201597132905086 278.975 51.52386208194215 282 51.9578689111298 C 285.025 52.39187574031745 291.1 53.711058237828965 295.5 54.889385572266484 C 299.9 56.067712906704 306.875 58.63516155248347 311 60.59482700733196 C 315.125 62.554492462180455 321.425 66.24649575810649 325 68.7992787760565 C 328.575 71.35206179400649 333.4723457932656 75.25404439491878 335.88299065170133 77.47035122252825 C 338.2936355101371 79.68665805013771 343.9186355101371 86.00469612258709 348.38299065170133 91.51043582797132 C 352.8473457932656 97.01617553335555 358.3736814231529 103.99117553335554 360.66373649589536 107.01043582797132 C 362.9537915686379 110.0296961225871 366.8022785322994 115.875 369.2159297484766 120 C 371.6295809646538 124.125 374.65036798988575 129.75 375.92878980454753 132.5 C 377.2072116192093 135.25 379.6173660772268 140.875 381.28468860014186 145 C 382.952011123057 149.125 384.6653998355969 154.075 385.09221907245274 156 C 385.51903830930866 157.925 386.4189647164512 161.525 387.09205553276956 164 C 387.7698268289629 166.492210437893 388.3379063250473 174.746456415444 388.3652754860086 182.5 C 388.40743236892956 194.44282972642046 388.07209952052403 197.60205550370333 386.083179571066 204 C 384.80084665988437 208.125 381.78450345636423 215.325 379.3801946743546 220 C 376.9758858923449 224.675 372.79429509442167 231.425 370.0877706789696 235 C 367.3812462635176 238.575 360.29178332715543 246.4896920159078 354.3334085981648 252.58820447979508 C 347.27624164715917 259.81135216150057 340.5371232922673 265.58020163111473 335 269.1380731812993 C 330.325 272.14198850323936 322.3375 276.48979648733155 317.25 278.79986870150424 C 312.1625 281.10994091567693 307.325 283 306.5 283 C 305.675 283 304.83382111939846 283.3375 304.6307135986633 283.75 C 304.42760607792815 284.1625 300.94010607792814 285.36066105658097 296.8807135986633 286.4125801257354 C 292.8213211193985 287.4644991948899 288.15 288.8886552795574 286.5 289.5773714249965 C 284.85 290.26608757043556 275.175 292.19552229212894 265 293.86500413987073 C 253.10221176674688 295.81715563703943 239.36247376567906 297.27790670282616 226.5 297.95816195906787 C 210.07887214599114 298.8266230917865 205.06845114160353 298.76133727566094 198.5 297.5933217889675 C 194.1 296.81090474259565 187.35 295.09010360302966 183.5 293.76931925659864 C 179.65 292.4485349101676 173.8 289.97145914458497 170.5 288.2647064441928 C 167.2 286.5579537438007 161.82520454982244 282.9876777800605 158.55601011071656 280.33075985810353 C 155.28681567161067 277.6738419361466 150.6977115984147 273.025 148.35800105917002 270 C 146.0182905199253 266.975 142.54907381057862 261.35 140.6486305939552 257.5 C 138.74818737733176 253.65 136.53498007106725 248.925 135.73039213558965 247 C 134.92580420011205 245.075 132.96981635963627 239.675 131.38375249008791 235 L 128.5 226.5 L 128.57324774963203 198 L 128.64649549926406 169.5 L 131.3376736614311 156.5 C 132.817821650623 149.35 134.9912422568551 140.35 136.1674972308358 136.5 C 137.34375220481652 132.65 139.8464393394389 125.9 141.72902419666332 121.5 C 143.61160905388772 117.1 147.4564886917746 109.675 150.27320116974525 105 C 153.79661785281965 99.15205736396626 158.68702633447197 93.21861276420387 165.94724829211867 85.98296070694576 C 174.10859702065238 77.84923145429946 178.53952745311483 74.33022754851908 185.5 70.45434641756492 C 190.45 67.6979801695853 195.625 64.92358156039464 197 64.28901617491898 C 198.375 63.65445078944333 201.075 62.493306404074005 203 61.70869531854271 C 204.925 60.92408423301141 209.65 59.31137980073315 213.5 58.124907691257675 C 217.35 56.93843558178221 224.325 55.236728615526125 229 54.34333665513306 C 233.675 53.44994469473998 240.425 52.40301922235452 244 52.016835605387584 C 247.575 51.630651988420645 256.35 51.281852026967584 263.5 51.24172457993633 Z " class="even" fill="#ffffff"></path><path d="M 323.5 115.4183169025009 C 314.7 115.23348247341691 305.25 115.54368081144506 302.5 116.10764654256344 C 299.75 116.67161227368183 294.8 118.42935412268558 291.5 120.01373954034956 C 288.2 121.59812495801354 283.75793454328914 124.60569123229743 281.6287434295315 126.69722014986931 C 279.49955231577377 128.7887490674412 276.68705231577377 132.6375 275.3787434295315 135.25 C 273.57501795839556 138.8517738952129 273.00134812245597 141.63168972785536 273.0055769344027 146.75 C 273.00864424832423 150.4625 273.51518814758487 155.3 274.1312300438708 157.5 C 274.74727194015674 159.7 276.43226231967554 163.02079249476571 277.8756531094681 164.87953887725712 C 279.31904389926063 166.73828525974855 282.75 169.4080857098668 285.5 170.81242876640883 C 289.997100906802 173.1089641966038 292.05898718891376 173.42975601064342 306 174.00185402466155 L 321.5 174.6379282710197 L 327.5 177.64694259072274 C 330.8 179.30190046655943 336.425 182.1785858359556 340 184.03957674493648 C 344.6491021397509 186.45969893150993 348.2085211017684 187.54229266925464 352.5 187.8414393147023 C 356.9693245180773 188.1529830665662 359.50861897183535 187.78011095548285 362.4536230262279 186.3798410249787 C 364.62811569065326 185.34592846124042 367.7260246637621 183.15 369.3378651886919 181.5 C 370.9497057136217 179.85 373.2714597267549 176.475 374.4973185512101 174 C 375.7231773756653 171.525 377.2932180525983 167.025 377.9862978332835 164 C 378.71110222306726 160.836535503996 378.95202581309866 156.80070145163927 378.55341087004524 154.5 C 378.172243259579 152.3 376.65429360953715 148.08926781774554 375.1801894255078 145.14281737276787 C 373.70608524147855 142.19636692779017 370.025 137.22677183165965 367 134.09927271470002 C 363.975 130.97177359774042 359.925 127.22673481556384 358 125.77696430986322 C 356.075 124.32719380416258 351.125 121.47902428798106 347 119.44769871834873 L 339.5 115.75437950083543 L 323.5 115.4183169025009 Z " class="odd" fill="#000000"></path><path d="M 207.75 130.0833128964971 C 203.7625 130.1291349895705 197.9125 130.8041349895705 194.75 131.5833128964971 C 191.5875 132.3624908034237 186.1875 134.40385745853567 182.75 136.1196832411904 C 179.3125 137.83550902384513 174.25 141.06500210260555 171.5 143.2963345273247 C 168.75 145.52766695204386 164.7 149.50689210948977 162.5 152.13905709942674 C 160.3 154.77122208936368 156.79531700218558 159.75422901060324 154.7118155604124 163.21240581329243 C 152.62831411863922 166.6705826159816 149.81581411863922 172.9875 148.4618155604124 177.25 C 146.61830298509915 183.05353081214756 146.00245353463438 187.19762650241404 146.009768915704 193.75 C 146.0176377221002 200.79807555447363 146.4722919236935 203.4725282545865 148.34725473911897 207.5 C 149.691211494748 210.38685611033054 152.98510974202728 214.61314388966946 156.14108804924552 217.5 C 159.8034708578162 220.85007758611962 163.4044312041632 223.073118006023 167.05360222583056 224.23680289812876 C 170.04912100162375 225.19204449209957 173.85 225.9822731762623 175.5 225.99286664071258 C 177.15 226.00346010516287 181.65 224.50039747356348 185.5 222.65272745938057 C 189.35 220.80505744519763 194.525 217.60256024858467 197 215.53606702246282 C 199.475 213.46957379634097 204.92532736441706 208.56607512378244 209.11183858759347 204.6394033056661 C 213.29834981076988 200.71273148754975 219.97755576758038 194.8 223.9545184916168 191.5 C 227.9314812156532 188.2 233.63206379562826 182.575 236.6224797804502 179 C 239.61289576527213 175.425 243.01700889265294 170.475 244.18717561907417 168 C 245.8206805971818 164.54500104170543 246.1892716456604 162.3388877314384 245.77440821689703 158.5 C 245.47721941927833 155.75 243.86984263600527 150.8 242.20245980962352 147.5 C 240.53507698324174 144.2 237.2199123698294 139.59317384654958 234.8354273353738 137.26260854788794 C 231.01625724761442 133.52980035341307 229.57713972360543 132.84509756770095 222.75 131.51260854788794 C 218.4875 130.68067384654958 211.7375 130.0374908034237 207.75 130.0833128964971 Z " class="odd" fill="#000000"></path><path d="M 328.75 139.026609374089 C 330.5375 139.01197421834004 333.35 139.675 335 140.5 C 336.6969696969697 141.34848484848484 338.6515151515151 143.52020202020202 339.5 145.5 C 340.5232204049096 147.88751427812235 340.7616102024548 150.15202228088765 340.25 152.6243862764382 C 339.8375 154.61779872847922 339.1625 156.41779872847923 338.75 156.6243862764382 C 338.3375 156.83097382439718 337.55 156.1 337 155 C 336.45 153.9 335.1 152.55 334 152 C 332.5042304937627 151.25211524688135 331.33031528927916 151.44120168204233 329.34373577558335 152.75 C 326.9975474228659 154.29571581377877 326.76407978147023 154.93775182761692 327.34373577558335 158.25 C 327.9216137140814 161.55208807480554 327.7611136398963 162 326 162 C 324.9 162 322.65 160.65 321 159 C 319.35 157.35 317.725176408378 154.5375 317.38928090750665 152.75 C 317.004471279729 150.70219880031675 317.3702948175625 148.20532436888965 318.37824088454676 146 C 319.25806437279016 144.075 321.22038796441217 141.72447421834005 322.7389599770401 140.776609374089 C 324.25753198966805 139.8287445298379 326.9625 139.0412445298379 328.75 139.026609374089 Z " class="even" fill="#ffffff"></path><path d="M 195.25 170.99226797178994 C 197.5875 170.98801535627442 200.5125 171.6630153562744 201.75 172.49226797178994 C 202.9875 173.32152058730549 204.74224570558692 175.4625 205.64943490130423 177.25 C 206.55662409702157 179.0375 207.24204773946894 181.85 207.17259855118726 183.5 C 207.1031493629056 185.15 206.5784036573187 186.95 206.00649698321638 187.5 C 205.3078970816638 188.171840290126 204.97213599516456 188.08980036265748 204.98333333333335 187.25 C 204.9925 186.5625 204.325 185.325 203.5 184.5 C 202.675 183.675 200.875 183 199.5 183 C 197.92992994593038 183 196.34904903784874 183.96108322174348 195.25 185.5837516738477 L 193.5 188.16750334769543 L 195.25 191.0837516738477 C 196.2125 192.68768825323147 197 194.225 197 194.5 C 197 194.775 195.5375 194.73082748740276 193.75 194.40183886089503 C 191.9625 194.0728502343873 189.4875 193.17285023438728 188.25 192.40183886089503 C 187.0125 191.63082748740277 185.2800066170017 189.3125 184.40001470444827 187.25 C 183.10950076533268 184.22533015763463 183.01279007764805 182.77466984236537 183.90001470444827 179.75 C 184.50500661700173 177.6875 186.35 174.875 188 173.5 C 190.15923174846426 171.7006402096131 192.1910883563423 170.99783305205366 195.25 170.99226797178994 Z " class="even" fill="#ffffff"></path><path d="M 272.5 174.53353693072734 C 268.79428132723206 174.2126573540777 264.97047911517865 174.52342512204206 262.5 175.34625618431414 C 260.3 176.07900001763642 257.08559081827616 177.5383512170703 255.3568684850581 178.58925884972277 C 253.62814615184007 179.64016648237524 250.80035855769844 182.3 249.07289605363226 184.5 C 247.34543354956608 186.7 245.94734273128992 189.5125 245.96602756857413 190.75 C 245.98471240585837 191.9875 247.4625 194.34566889559306 249.25 195.99037532354012 C 251.20303544456422 197.78739347720906 254.39556358102152 199.3836575454377 257.25 199.99037532354012 C 259.8625 200.54566889559305 263.125 201 264.5 201 L 267 201 L 267 208.5 C 267 214.09634268715277 266.42890280614586 217.29761999439228 264.75 221.11234343085943 C 263.20746220397865 224.61722475012263 261.3995032382555 226.868448144749 259 228.2720936046826 C 255.96873513342553 230.04530278397792 254.22771892355922 230.26462483267545 246 229.90975017382317 L 236.5 229.5 L 236.25 231.75 C 236.0665560985417 233.40099511312482 236.73211708395857 234.27978324010698 238.75 235.05093014102886 C 240.2625 235.62894171859475 244.78830150218397 236.41644171859474 248.80733667151992 236.80093014102886 L 256.11467334303984 237.5 L 257.08440053242043 241.5 C 257.6177504865797 243.7 259.39194898439575 247.1875 261.0270638609005 249.25 C 263.1570946078546 251.9367766165665 265.41763117791135 253.4252893533734 269 254.5 C 271.75 255.325 275.0125 255.7217737424741 276.25 255.38171942772027 C 277.4875 255.0416651129664 279.33538435097114 254.0291651129664 280.35640966882477 253.13171942772027 C 281.3774349866784 252.2342737424741 283.1212196575193 249.7 284.23148671513786 247.5 C 285.3417537727565 245.3 286.5313694217853 240.5850491701863 286.8750770463131 237.0223314893029 C 287.43457889423985 231.22278855267425 287.76171668592974 230.46766787212948 290 229.8091815342073 C 291.375 229.40466673978815 293.7375 228.83211756960185 295.25 228.5368500449044 C 296.7625 228.24158252020698 299.7532466719783 226.3125 301.89610371550725 224.25 C 304.3719542308672 221.86699376850623 306.1946125888755 218.95074039569292 306.89610371550725 216.25 C 307.81835210282617 212.69934428970691 307.7120347042383 211.38293150908214 306.25 208.25 C 305.0833333333333 205.75 303.75 204.41666666666666 302.25 204.25 C 300.85957943171894 204.09550882574655 299.75192916522775 204.66856178022582 299.3506599185123 205.75 C 298.9935228736941 206.7125 299.21852287369404 208.2875 299.8506599185123 209.25 C 300.48279696333054 210.2125 300.98999386948503 212.0125 300.97776415441115 213.25 C 300.9655344393373 214.4875 300.1780344393373 216.4598320136137 299.22776415441115 217.63296003025266 C 298.27749386948506 218.8060880468916 296.4875 220.2685880468916 295.25 220.88296003025266 C 294.0125 221.4973320136137 290.975 222 288.5 222 C 286.025 222 282.9875 221.53133039846597 281.75 220.95851199659108 C 280.5125 220.38569359471617 278.375 218.27541874902514 277 216.2690123394999 C 275.211220192757 213.65881650642237 274.29547096360443 210.6123725198799 273.7810628885453 205.56050034290885 L 273.06212577709056 198.5 L 273.7810628885453 198.2805241758594 C 274.17647829984537 198.15981247258208 276.4125 196.69731247258207 278.75 195.0305241758594 C 281.0875 193.36373587913673 283.675 190.425 284.5 188.5 L 286 185 L 284.5 181.5 C 283.675 179.575 281.9875 177.33694281826118 280.75 176.526539596136 C 279.5125 175.71613637401077 275.8 174.8192851745769 272.5 174.53353693072734 Z " class="odd" fill="#000000"></path><path d="M 277.25 181.33249824624187 C 277.9375 181.5153722816749 278.7577459462083 182.9778722816749 279.0727687693517 184.58249824624187 C 279.38779159249515 186.18712421080883 279.27529159249514 188.2875 278.8227687693517 189.25 C 278.3702459462083 190.2125 277.55 191 277 191 C 276.45 191 275.7371334327583 189.7625 275.41585207279627 188.25 L 274.8317041455925 185.5 L 275.41585207279627 183.25 C 275.7371334327583 182.0125 276.5625 181.14962421080884 277.25 181.33249824624187 Z " class="even" fill="#ffffff"></path><path d="M 274.5 223.88026670249047 C 275.6 224.9086605063459 277.5125 226.25630705440824 278.75 226.87503680929564 C 280.39748777089886 227.6987537423609 280.99581697210346 228.87029544203494 280.98437905105885 231.25 C 280.9757875291412 233.0375 280.31680281124767 237.2 279.51996856685093 240.5 C 278.7231343224542 243.8 277.37945031799916 247.175 276.5340041125064 248 C 275.31355852363686 249.19093042735994 274.23141196107395 249.29395361823995 271.282047959143 248.5 C 268.76762559301085 247.82313043284347 266.8202943982961 246.36904348504788 265.25559239573863 244 C 263.9841715147233 242.075 262.94496511338843 239.15 262.9462448372167 237.5 C 262.9477362826482 235.57701872261188 263.8833445363777 233.60248439782345 265.5523506571617 232 C 266.9844291343032 230.625 269.1335005225451 227.8148534519377 270.3280648532549 225.75522989319484 L 272.5 222.0104597863897 L 274.5 223.88026670249047 Z " class="even" fill="#ffffff"></path><path d="M 313.25 289.0704619511898 C 314.72046737104534 289.01125509397565 315.0021369158922 289.91846435227956 315.01337805473867 294.75 C 315.02216284940175 298.52577833992723 316.04754168813463 303.41841462793366 317.9998351694361 309 C 319.63502865241344 313.675 322.5239423922759 319.75 324.4196434802416 322.5 C 326.31534456820725 325.25 328.76893376987607 329.975 329.8720639283946 333 C 330.9751940869131 336.025 332.3579732011945 341.2 332.9449064045755 344.5 C 333.5318396079565 347.8 334.0026932156606 353.65 333.991247755029 357.5 C 333.9798022943975 361.35 333.30208931562123 367.3125 332.48521891330404 370.75 C 331.6683485109868 374.1875 329.59326695737184 379.8125 327.87392657193743 383.25 C 325.81536509374314 387.36570922270005 322.1443849567872 392.06114893276 317.12392657193743 397 C 310.974880453796 403.049093659403 307.56545821253735 405.44023270853563 299.5 409.36023468001076 C 294 412.03336375401665 288.6 414.5940627363795 287.5 415.05067686303937 C 286.4 415.5072909896992 282.35 416.5437957390752 278.5 417.3540207505417 C 274.65 418.16424576200814 267.9 419.11462701022305 263.5 419.4659790799081 C 259.1 419.81733114959314 250.55 419.63892032789926 244.5 419.06951058725497 C 238.45 418.5001008466106 233.40950459901902 417.9140206160329 233.29889910893112 417.76711007485994 C 233.18829361884323 417.62019953368696 232.678083803859 414.575 232.1650995200773 411 C 231.65211523629557 407.425 230.27967316689222 402.475 229.1152282547365 400 C 227.9507833425808 397.525 225.53599315756503 393.89743987681265 223.74902784359034 391.93875528180587 C 221.96206252961565 389.9800706867991 218.25 387.11872471563737 215.5 385.5802086792242 C 212.75 384.04169264281103 208.475 382.4537541114819 206 382.0514563873816 C 203.525 381.64915866328136 198.6875 381.6980046344431 195.25 382.1600029899633 C 191.8125 382.62200134548345 187.5375 383.7259014664744 185.75 384.6131143699431 C 182.94647683298393 386.00462314138366 182.36262251292803 386.0292491408008 181.5 384.79237226686644 C 180.95 384.0037512067056 179.94866802183392 378.8903497402312 179.27481782629758 373.42925789692333 C 178.38713193260674 366.2351749604389 178.31826538213454 360.4010052287521 179.02481782629758 352.25 C 179.5611680218339 346.0625 181.1189316503895 336.3875 182.48651477864334 330.75 C 183.85409790689718 325.1125 186.2801173157885 316.9 187.87766902062404 312.5 L 190.7823084839614 304.5 L 194.6411542419807 304.81289049412544 C 196.7635194088913 304.9849802658944 204.125 305.1739179537 211 305.2327520225823 C 217.875 305.2915860914645 230.25 304.8373071121799 238.5 304.2232431797275 C 246.75 303.6091792472751 260.7 301.78180282685804 269.5 300.1624066899119 C 278.3 298.5430105529657 288.2 296.44561847568326 291.5 295.5015354070621 C 294.8 294.55745233844084 298.85 293.4283801853387 300.5 292.99248617794615 C 302.15 292.55659217055364 305.3 291.5116703827997 307.5 290.6704377607152 C 309.7 289.82920513863064 312.2875 289.1092160243442 313.25 289.0704619511898 Z " class="even" fill="#ffffff"></path></g></svg>